<mxfile host="Electron" modified="2024-01-24T09:48:46.456Z" agent="Mozilla/5.0 (Windows NT 10.0; Win64; x64) AppleWebKit/537.36 (KHTML, like Gecko) draw.io/22.1.21 Chrome/120.0.6099.109 Electron/28.1.0 Safari/537.36" etag="XmEWFCfp3_Rbvf0HIyW6" version="22.1.21" type="device">
  <diagram name="Page-1" id="KFjOqeDzSya9UqstODg9">
    <mxGraphModel dx="1050" dy="629" grid="1" gridSize="10" guides="1" tooltips="1" connect="1" arrows="1" fold="1" page="1" pageScale="1" pageWidth="850" pageHeight="1100" math="0" shadow="0">
      <root>
        <mxCell id="0" />
        <mxCell id="1" parent="0" />
        <mxCell id="7A9pSVZmskP2uSNpv1P4-1" value="title" style="rounded=1;whiteSpace=wrap;html=1;" vertex="1" parent="1">
          <mxGeometry x="380" y="290" width="70" height="30" as="geometry" />
        </mxCell>
        <mxCell id="7A9pSVZmskP2uSNpv1P4-2" value="year of&amp;nbsp;&lt;br&gt;publication" style="rounded=1;whiteSpace=wrap;html=1;" vertex="1" parent="1">
          <mxGeometry x="360" y="330" width="70" height="30" as="geometry" />
        </mxCell>
        <mxCell id="7A9pSVZmskP2uSNpv1P4-3" value="category" style="rounded=1;whiteSpace=wrap;html=1;" vertex="1" parent="1">
          <mxGeometry x="230" y="300" width="70" height="30" as="geometry" />
        </mxCell>
        <mxCell id="7A9pSVZmskP2uSNpv1P4-4" value="primary key:&lt;br&gt;id" style="rounded=1;whiteSpace=wrap;html=1;" vertex="1" parent="1">
          <mxGeometry x="425" y="370" width="80" height="30" as="geometry" />
        </mxCell>
        <mxCell id="7A9pSVZmskP2uSNpv1P4-5" value="authors" style="rounded=1;whiteSpace=wrap;html=1;" vertex="1" parent="1">
          <mxGeometry x="260" y="410" width="70" height="30" as="geometry" />
        </mxCell>
        <mxCell id="7A9pSVZmskP2uSNpv1P4-6" value="publisher" style="rounded=1;whiteSpace=wrap;html=1;" vertex="1" parent="1">
          <mxGeometry x="240" y="350" width="70" height="30" as="geometry" />
        </mxCell>
      </root>
    </mxGraphModel>
  </diagram>
</mxfile>
